<svg height="1000" width="920" xmlns="http://www.w3.org/2000/svg"><path fill="#000000" d="M454.116 40q190 -2 326 130t140 322q2 190 -131 327t-323 141q-190 2 -327 -131t-139 -323q-4 -190 130 -327t324 -139zm-2 740q30 0 49 -19t19 -47q2 -30 -17 -49t-49 -19l-2 0q-28 0 -47 18t-21 46q0 30 19 49t47 21l2 0zm166 -328q26 -34 26 -78 0 -78 -54 -116 -52 -38 -134 -38 -64 0 -104 26 -68 42 -72 146l0 4l110 0l0 -4q0 -26 16 -54 16 -24 54 -24 40 0 52 20 16 20 16 44 0 18 -16 40 -8 12 -20 20l-6 4q-6 4 -16 11t-20 15 -21 17 -17 17q-14 20 -18 78l0 8l108 0l0 -4q0 -12 4 -28 6 -20 28 -36l28 -18q46 -34 56 -50z"/></svg>