<svg height="1000" width="999" xmlns="http://www.w3.org/2000/svg"><path fill="#000000" d="M.326 464.439q-1.953 -13.671 7.812 -25.389l359.352 -185.535q29.295 -11.718 41.013 15.624 11.718 33.201 -13.671 44.919l-226.548 103.509l658.161 0l-228.501 -103.509q-25.389 -15.624 -13.671 -44.919 13.671 -27.342 42.966 -15.624l361.305 185.535q11.718 11.718 9.765 25.389l-27.342 255.843q-7.812 29.295 -33.201 29.295l-312.48 0q-25.389 -1.953 -31.248 -25.389l-48.825 -222.642q-39.06 -25.389 -91.791 -1.953l-50.778 224.595q-5.859 25.389 -31.248 25.389l-312.48 0q-27.342 -1.953 -31.248 -29.295zm66.402 29.295l19.53 189.441l259.749 0l42.966 -189.441l-322.245 0zm542.934 0l41.013 189.441l259.749 0l19.53 -189.441l-320.292 0z"/></svg>